<svg xmlns="http://www.w3.org/2000/svg" width="132" height="132" viewBox="0 0 34.925 34.925">
  <path fill="#fff" d="M0 0h34.925v34.925H0z"/>
  <path d="M4.233 4.233h1.059v1.059H4.233zM5.292 4.233H6.35v1.059H5.292zM6.35 4.233h1.058v1.059H6.35zM7.408 4.233h1.059v1.059H7.408zM8.467 4.233h1.058v1.059H8.467zM9.525 4.233h1.058v1.059H9.525zM10.583 4.233h1.059v1.059h-1.059zM13.758 4.233h1.059v1.059h-1.059zM16.933 4.233h1.059v1.059h-1.059zM17.992 4.233h1.058v1.059h-1.058zM20.108 4.233h1.059v1.059h-1.059zM23.283 4.233h1.059v1.059h-1.059z"/>
  <path d="M24.342 4.233H25.4v1.059h-1.058zM25.4 4.233h1.058v1.059H25.4zM26.458 4.233h1.059v1.059h-1.059zM27.517 4.233h1.058v1.059h-1.058zM28.575 4.233h1.058v1.059h-1.058zM29.633 4.233h1.059v1.059h-1.059zM4.233 5.292h1.059V6.35H4.233zM10.583 5.292h1.059V6.35h-1.059zM14.817 5.292h1.058V6.35h-1.058zM15.875 5.292h1.058V6.35h-1.058zM16.933 5.292h1.059V6.35h-1.059zM17.992 5.292h1.058V6.35h-1.058zM20.108 5.292h1.059V6.35h-1.059zM21.167 5.292h1.058V6.35h-1.058zM23.283 5.292h1.059V6.35h-1.059zM29.633 5.292h1.059V6.35h-1.059zM4.233 6.35h1.059v1.058H4.233zM6.35 6.35h1.058v1.058H6.35zM7.408 6.35h1.059v1.058H7.408zM8.467 6.35h1.058v1.058H8.467zM10.583 6.35h1.059v1.058h-1.059zM12.7 6.35h1.058v1.058H12.7zM13.758 6.35h1.059v1.058h-1.059zM14.817 6.35h1.058v1.058h-1.058zM16.933 6.35h1.059v1.058h-1.059zM23.283 6.35h1.059v1.058h-1.059zM25.4 6.35h1.058v1.058H25.4zM26.458 6.35h1.059v1.058h-1.059zM27.517 6.35h1.058v1.058h-1.058zM29.633 6.35h1.059v1.058h-1.059zM4.233 7.408h1.059v1.059H4.233zM6.35 7.408h1.058v1.059H6.35zM7.408 7.408h1.059v1.059H7.408zM8.467 7.408h1.058v1.059H8.467zM10.583 7.408h1.059v1.059h-1.059zM13.758 7.408h1.059v1.059h-1.059zM14.817 7.408h1.058v1.059h-1.058zM15.875 7.408h1.058v1.059h-1.058zM20.108 7.408h1.059v1.059h-1.059zM23.283 7.408h1.059v1.059h-1.059zM25.4 7.408h1.058v1.059H25.4zM26.458 7.408h1.059v1.059h-1.059zM27.517 7.408h1.058v1.059h-1.058zM29.633 7.408h1.059v1.059h-1.059zM4.233 8.467h1.059v1.058H4.233zM6.35 8.467h1.058v1.058H6.35zM7.408 8.467h1.059v1.058H7.408zM8.467 8.467h1.058v1.058H8.467zM10.583 8.467h1.059v1.058h-1.059zM14.817 8.467h1.058v1.058h-1.058zM17.992 8.467h1.058v1.058h-1.058zM19.05 8.467h1.058v1.058H19.05zM20.108 8.467h1.059v1.058h-1.059zM23.283 8.467h1.059v1.058h-1.059zM25.4 8.467h1.058v1.058H25.4zM26.458 8.467h1.059v1.058h-1.059zM27.517 8.467h1.058v1.058h-1.058zM29.633 8.467h1.059v1.058h-1.059zM4.233 9.525h1.059v1.058H4.233zM10.583 9.525h1.059v1.058h-1.059zM13.758 9.525h1.059v1.058h-1.059zM19.05 9.525h1.058v1.058H19.05zM20.108 9.525h1.059v1.058h-1.059zM23.283 9.525h1.059v1.058h-1.059zM29.633 9.525h1.059v1.058h-1.059zM4.233 10.583h1.059v1.059H4.233zM5.292 10.583H6.35v1.059H5.292zM6.35 10.583h1.058v1.059H6.35zM7.408 10.583h1.059v1.059H7.408zM8.467 10.583h1.058v1.059H8.467zM9.525 10.583h1.058v1.059H9.525zM10.583 10.583h1.059v1.059h-1.059zM12.7 10.583h1.058v1.059H12.7zM14.817 10.583h1.058v1.059h-1.058zM16.933 10.583h1.059v1.059h-1.059zM19.05 10.583h1.058v1.059H19.05zM21.167 10.583h1.058v1.059h-1.058zM23.283 10.583h1.059v1.059h-1.059z"/>
  <path d="M24.342 10.583H25.4v1.059h-1.058zM25.4 10.583h1.058v1.059H25.4zM26.458 10.583h1.059v1.059h-1.059zM27.517 10.583h1.058v1.059h-1.058zM28.575 10.583h1.058v1.059h-1.058zM29.633 10.583h1.059v1.059h-1.059zM12.7 11.642h1.058V12.7H12.7zM13.758 11.642h1.059V12.7h-1.059zM14.817 11.642h1.058V12.7h-1.058zM16.933 11.642h1.059V12.7h-1.059zM17.992 11.642h1.058V12.7h-1.058zM20.108 11.642h1.059V12.7h-1.059zM21.167 11.642h1.058V12.7h-1.058zM4.233 12.7h1.059v1.058H4.233zM5.292 12.7H6.35v1.058H5.292zM6.35 12.7h1.058v1.058H6.35zM8.467 12.7h1.058v1.058H8.467zM9.525 12.7h1.058v1.058H9.525zM10.583 12.7h1.059v1.058h-1.059zM11.642 12.7H12.7v1.058h-1.058zM12.7 12.7h1.058v1.058H12.7zM14.817 12.7h1.058v1.058h-1.058zM15.875 12.7h1.058v1.058h-1.058zM17.992 12.7h1.058v1.058h-1.058zM20.108 12.7h1.059v1.058h-1.059zM21.167 12.7h1.058v1.058h-1.058zM22.225 12.7h1.058v1.058h-1.058zM23.283 12.7h1.059v1.058h-1.059zM27.517 12.7h1.058v1.058h-1.058zM5.292 13.758H6.35v1.059H5.292zM7.408 13.758h1.059v1.059H7.408zM8.467 13.758h1.058v1.059H8.467zM14.817 13.758h1.058v1.059h-1.058zM15.875 13.758h1.058v1.059h-1.058zM17.992 13.758h1.058v1.059h-1.058zM19.05 13.758h1.058v1.059H19.05zM21.167 13.758h1.058v1.059h-1.058zM22.225 13.758h1.058v1.059h-1.058zM23.283 13.758h1.059v1.059h-1.059zM29.633 13.758h1.059v1.059h-1.059zM7.408 14.817h1.059v1.058H7.408zM10.583 14.817h1.059v1.058h-1.059zM11.642 14.817H12.7v1.058h-1.058zM13.758 14.817h1.059v1.058h-1.059zM23.283 14.817h1.059v1.058h-1.059z"/>
  <path d="M24.342 14.817H25.4v1.058h-1.058zM25.4 14.817h1.058v1.058H25.4zM27.517 14.817h1.058v1.058h-1.058zM28.575 14.817h1.058v1.058h-1.058zM29.633 14.817h1.059v1.058h-1.059zM5.292 15.875H6.35v1.058H5.292zM8.467 15.875h1.058v1.058H8.467zM9.525 15.875h1.058v1.058H9.525zM12.7 15.875h1.058v1.058H12.7zM15.875 15.875h1.058v1.058h-1.058zM17.992 15.875h1.058v1.058h-1.058zM19.05 15.875h1.058v1.058H19.05zM20.108 15.875h1.059v1.058h-1.059zM21.167 15.875h1.058v1.058h-1.058zM25.4 15.875h1.058v1.058H25.4zM28.575 15.875h1.058v1.058h-1.058zM6.35 16.933h1.058v1.059H6.35zM7.408 16.933h1.059v1.059H7.408zM8.467 16.933h1.058v1.059H8.467zM10.583 16.933h1.059v1.059h-1.059zM12.7 16.933h1.058v1.059H12.7zM16.933 16.933h1.059v1.059h-1.059zM17.992 16.933h1.058v1.059h-1.058zM21.167 16.933h1.058v1.059h-1.058zM22.225 16.933h1.058v1.059h-1.058zM23.283 16.933h1.059v1.059h-1.059zM26.458 16.933h1.059v1.059h-1.059zM28.575 16.933h1.058v1.059h-1.058zM29.633 16.933h1.059v1.059h-1.059zM5.292 17.992H6.35v1.058H5.292zM6.35 17.992h1.058v1.058H6.35zM7.408 17.992h1.059v1.058H7.408zM12.7 17.992h1.058v1.058H12.7zM13.758 17.992h1.059v1.058h-1.059zM15.875 17.992h1.058v1.058h-1.058zM16.933 17.992h1.059v1.058h-1.059zM17.992 17.992h1.058v1.058h-1.058zM19.05 17.992h1.058v1.058H19.05zM21.167 17.992h1.058v1.058h-1.058zM23.283 17.992h1.059v1.058h-1.059zM26.458 17.992h1.059v1.058h-1.059zM29.633 17.992h1.059v1.058h-1.059zM9.525 19.05h1.058v1.058H9.525zM10.583 19.05h1.059v1.058h-1.059zM12.7 19.05h1.058v1.058H12.7zM15.875 19.05h1.058v1.058h-1.058zM16.933 19.05h1.059v1.058h-1.059zM17.992 19.05h1.058v1.058h-1.058zM19.05 19.05h1.058v1.058H19.05zM23.283 19.05h1.059v1.058h-1.059z"/>
  <path d="M24.342 19.05H25.4v1.058h-1.058zM27.517 19.05h1.058v1.058h-1.058zM28.575 19.05h1.058v1.058h-1.058zM29.633 19.05h1.059v1.058h-1.059zM5.292 20.108H6.35v1.059H5.292zM6.35 20.108h1.058v1.059H6.35zM13.758 20.108h1.059v1.059h-1.059zM16.933 20.108h1.059v1.059h-1.059zM17.992 20.108h1.058v1.059h-1.058zM19.05 20.108h1.058v1.059H19.05zM20.108 20.108h1.059v1.059h-1.059zM21.167 20.108h1.058v1.059h-1.058zM22.225 20.108h1.058v1.059h-1.058zM23.283 20.108h1.059v1.059h-1.059zM25.4 20.108h1.058v1.059H25.4zM28.575 20.108h1.058v1.059h-1.058zM5.292 21.167H6.35v1.058H5.292zM6.35 21.167h1.058v1.058H6.35zM7.408 21.167h1.059v1.058H7.408zM8.467 21.167h1.058v1.058H8.467zM9.525 21.167h1.058v1.058H9.525zM10.583 21.167h1.059v1.058h-1.059zM11.642 21.167H12.7v1.058h-1.058zM12.7 21.167h1.058v1.058H12.7zM15.875 21.167h1.058v1.058h-1.058zM19.05 21.167h1.058v1.058H19.05zM21.167 21.167h1.058v1.058h-1.058zM22.225 21.167h1.058v1.058h-1.058zM23.283 21.167h1.059v1.058h-1.059z"/>
  <path d="M24.342 21.167H25.4v1.058h-1.058zM25.4 21.167h1.058v1.058H25.4zM26.458 21.167h1.059v1.058h-1.059zM12.7 22.225h1.058v1.058H12.7zM15.875 22.225h1.058v1.058h-1.058zM20.108 22.225h1.059v1.058h-1.059zM21.167 22.225h1.058v1.058h-1.058zM25.4 22.225h1.058v1.058H25.4zM26.458 22.225h1.059v1.058h-1.059zM28.575 22.225h1.058v1.058h-1.058zM29.633 22.225h1.059v1.058h-1.059zM4.233 23.283h1.059v1.059H4.233zM5.292 23.283H6.35v1.059H5.292zM6.35 23.283h1.058v1.059H6.35zM7.408 23.283h1.059v1.059H7.408zM8.467 23.283h1.058v1.059H8.467zM9.525 23.283h1.058v1.059H9.525zM10.583 23.283h1.059v1.059h-1.059zM12.7 23.283h1.058v1.059H12.7zM13.758 23.283h1.059v1.059h-1.059zM17.992 23.283h1.058v1.059h-1.058zM20.108 23.283h1.059v1.059h-1.059zM21.167 23.283h1.058v1.059h-1.058zM23.283 23.283h1.059v1.059h-1.059zM25.4 23.283h1.058v1.059H25.4zM26.458 23.283h1.059v1.059h-1.059zM28.575 23.283h1.058v1.059h-1.058zM29.633 23.283h1.059v1.059h-1.059z"/>
  <path d="M4.233 24.342h1.059V25.4H4.233zM10.583 24.342h1.059V25.4h-1.059zM12.7 24.342h1.058V25.4H12.7zM15.875 24.342h1.058V25.4h-1.058zM21.167 24.342h1.058V25.4h-1.058zM25.4 24.342h1.058V25.4H25.4zM26.458 24.342h1.059V25.4h-1.059zM4.233 25.4h1.059v1.058H4.233zM6.35 25.4h1.058v1.058H6.35zM7.408 25.4h1.059v1.058H7.408zM8.467 25.4h1.058v1.058H8.467zM10.583 25.4h1.059v1.058h-1.059zM12.7 25.4h1.058v1.058H12.7zM14.817 25.4h1.058v1.058h-1.058zM16.933 25.4h1.059v1.058h-1.059zM21.167 25.4h1.058v1.058h-1.058zM22.225 25.4h1.058v1.058h-1.058zM23.283 25.4h1.059v1.058h-1.059z"/>
  <path d="M24.342 25.4H25.4v1.058h-1.058zM25.4 25.4h1.058v1.058H25.4zM26.458 25.4h1.059v1.058h-1.059zM28.575 25.4h1.058v1.058h-1.058zM29.633 25.4h1.059v1.058h-1.059zM4.233 26.458h1.059v1.059H4.233zM6.35 26.458h1.058v1.059H6.35zM7.408 26.458h1.059v1.059H7.408zM8.467 26.458h1.058v1.059H8.467zM10.583 26.458h1.059v1.059h-1.059zM13.758 26.458h1.059v1.059h-1.059zM15.875 26.458h1.058v1.059h-1.058zM16.933 26.458h1.059v1.059h-1.059zM17.992 26.458h1.058v1.059h-1.058zM21.167 26.458h1.058v1.059h-1.058zM24.342 26.458H25.4v1.059h-1.058zM25.4 26.458h1.058v1.059H25.4zM26.458 26.458h1.059v1.059h-1.059zM27.517 26.458h1.058v1.059h-1.058zM4.233 27.517h1.059v1.058H4.233zM6.35 27.517h1.058v1.058H6.35zM7.408 27.517h1.059v1.058H7.408zM8.467 27.517h1.058v1.058H8.467zM10.583 27.517h1.059v1.058h-1.059zM12.7 27.517h1.058v1.058H12.7zM15.875 27.517h1.058v1.058h-1.058zM16.933 27.517h1.059v1.058h-1.059zM19.05 27.517h1.058v1.058H19.05zM25.4 27.517h1.058v1.058H25.4zM29.633 27.517h1.059v1.058h-1.059zM4.233 28.575h1.059v1.058H4.233zM10.583 28.575h1.059v1.058h-1.059zM12.7 28.575h1.058v1.058H12.7zM13.758 28.575h1.059v1.058h-1.059zM14.817 28.575h1.058v1.058h-1.058zM16.933 28.575h1.059v1.058h-1.059zM17.992 28.575h1.058v1.058h-1.058zM19.05 28.575h1.058v1.058H19.05zM20.108 28.575h1.059v1.058h-1.059zM21.167 28.575h1.058v1.058h-1.058zM22.225 28.575h1.058v1.058h-1.058zM23.283 28.575h1.059v1.058h-1.059zM25.4 28.575h1.058v1.058H25.4zM26.458 28.575h1.059v1.058h-1.059zM28.575 28.575h1.058v1.058h-1.058zM4.233 29.633h1.059v1.059H4.233zM5.292 29.633H6.35v1.059H5.292zM6.35 29.633h1.058v1.059H6.35zM7.408 29.633h1.059v1.059H7.408zM8.467 29.633h1.058v1.059H8.467zM9.525 29.633h1.058v1.059H9.525zM10.583 29.633h1.059v1.059h-1.059zM12.7 29.633h1.058v1.059H12.7zM15.875 29.633h1.058v1.059h-1.058zM19.05 29.633h1.058v1.059H19.05zM20.108 29.633h1.059v1.059h-1.059zM21.167 29.633h1.058v1.059h-1.058zM22.225 29.633h1.058v1.059h-1.058zM24.342 29.633H25.4v1.059h-1.058zM28.575 29.633h1.058v1.059h-1.058zM29.633 29.633h1.059v1.059h-1.059z"/>
</svg>

